<svg xmlns="http://www.w3.org/2000/svg" viewBox="-3 -17 22 22" width="650" height="650">
<rect x="-3" y="-17" width="22" height="22" fill="white"/>
<text x="0" y="-14.5" font-family="sans-serif" font-size="1">B-2x4 / SECTION Y=8 mm</text>
<polyline points="9.6000,-0.0000 14.4600,-0.0000" fill="none" stroke="#183d34" stroke-width=".10"/><polyline points="9.6000,-0.0000 9.6000,-8.0000" fill="none" stroke="#183d34" stroke-width=".10"/><polyline points="6.4000,-8.0000 9.6000,-8.0000" fill="none" stroke="#183d34" stroke-width=".10"/><polyline points="6.4000,-0.0000 6.4000,-8.0000" fill="none" stroke="#183d34" stroke-width=".10"/><polyline points="1.5400,-0.0000 6.4000,-0.0000" fill="none" stroke="#183d34" stroke-width=".10"/><polyline points="1.5400,-0.0000 1.5400,-0.2700" fill="none" stroke="#183d34" stroke-width=".10"/><polyline points="1.3600,-0.0000 1.5400,-0.2700" fill="none" stroke="#183d34" stroke-width=".10"/><polyline points="1.3600,-0.0000 0.1000,-0.0000" fill="none" stroke="#183d34" stroke-width=".10"/><polyline points="0.1000,-0.0000 0.1000,-9.6000" fill="none" stroke="#183d34" stroke-width=".10"/><polyline points="15.9000,-9.6000 0.1000,-9.6000" fill="none" stroke="#183d34" stroke-width=".10"/><polyline points="15.9000,-0.0000 15.9000,-9.6000" fill="none" stroke="#183d34" stroke-width=".10"/><polyline points="15.9000,-0.0000 14.6400,-0.0000" fill="none" stroke="#183d34" stroke-width=".10"/><polyline points="14.6400,-0.0000 14.4600,-0.2700" fill="none" stroke="#183d34" stroke-width=".10"/><polyline points="14.4600,-0.0000 14.4600,-0.2700" fill="none" stroke="#183d34" stroke-width=".10"/>
<text x="0" y="2.5" font-family="sans-serif" font-size=".85">BODY 9.6 / STUD 1.8 / ROOF 1.6 mm</text>
</svg>